<?xml version="1.0" standalone="no"?><!DOCTYPE svg PUBLIC "-//W3C//DTD SVG 1.1//EN" "http://www.w3.org/Graphics/SVG/1.1/DTD/svg11.dtd"><svg t="1759491082060" class="icon" viewBox="0 0 1024 1024" version="1.1" xmlns="http://www.w3.org/2000/svg" p-id="20625" xmlns:xlink="http://www.w3.org/1999/xlink" width="256" height="256"><path d="M0 0m256 0l512 0q256 0 256 256l0 512q0 256-256 256l-512 0q-256 0-256-256l0-512q0-256 256-256Z" fill="#000000" fill-opacity="0" p-id="20626"></path><path d="M388.992 758.144c-5.76-3.584-88.96-83.2-249.344-238.72a45.312 45.312 0 0 1 2.56-63.168 49.664 49.664 0 0 1 65.536-2.432l207.36 199.68 401.152-386.304a49.664 49.664 0 0 1 65.6 2.432 45.312 45.312 0 0 1 2.56 63.168l-434.56 418.56c-8.832 8.832-18.688 16.448-31.872 16.64-13.184 0.192-20.288-4.352-28.992-9.856z" fill="#000000" fill-opacity=".88" p-id="20627"></path></svg>