<?xml version="1.0" standalone="no"?><!DOCTYPE svg PUBLIC "-//W3C//DTD SVG 1.1//EN" "http://www.w3.org/Graphics/SVG/1.1/DTD/svg11.dtd"><svg t="1759493256412" class="icon" viewBox="0 0 1024 1024" version="1.1" xmlns="http://www.w3.org/2000/svg" p-id="30423" xmlns:xlink="http://www.w3.org/1999/xlink" width="256" height="256"><path d="M391.467 736.322a31.99 31.99 0 0 1-13.783 8.126l-232.261 66.798c-12.088 3.477-23.276-7.711-19.799-19.799l66.798-232.261a32 32 0 0 1 8.126-13.782l472.869-472.87c12.496-12.496 32.758-12.496 45.254 0L864.335 218.2c12.497 12.496 12.497 32.758 0 45.255L391.467 736.322z m248.009-516.709l77.781 77.782 56.569-56.569-77.782-77.782-56.568 56.569z m-50.912 50.911L265.88 593.209l-31.401 109.182 109.182-31.401 322.685-322.684-77.782-77.782zM129.001 889h768v72h-768v-72z" fill="#ffffff" p-id="30424"></path></svg>