<?xml version="1.0" standalone="no"?><!DOCTYPE svg PUBLIC "-//W3C//DTD SVG 1.1//EN" "http://www.w3.org/Graphics/SVG/1.1/DTD/svg11.dtd"><svg t="1759339164171" class="icon" viewBox="0 0 1024 1024" version="1.1" xmlns="http://www.w3.org/2000/svg" p-id="46339" xmlns:xlink="http://www.w3.org/1999/xlink" width="16" height="16"><path d="M607.085714 666.88a50.651429 50.651429 0 0 0 51.2-50.468571V407.588571a50.651429 50.651429 0 0 0-50.651428-50.651428h-202.971429a50.651429 50.651429 0 0 0-50.651428 50.651428v208.822858a50.651429 50.651429 0 0 0 50.651428 50.651428zM404.662857 408.685714H607.085714v206.628572H404.662857z" p-id="46340" fill="#ffffff"></path><path d="M505.965714 887.405714A371.565714 371.565714 0 0 1 138.24 512 380.342857 380.342857 0 0 1 164.571429 373.942857l100.754285 37.851429-65.097143-209.737143L0 312.137143l65.462857 24.502857A490.057143 490.057143 0 0 0 33.28 512c0 266.422857 211.565714 482.56 472.685714 482.56a463.177143 463.177143 0 0 0 233.874286-63.085714l-78.994286-78.994286a360.045714 360.045714 0 0 1-154.88 34.925714zM946.834286 685.897143A489.874286 489.874286 0 0 0 978.651429 512c0-266.422857-211.565714-482.56-472.685715-482.56a463.177143 463.177143 0 0 0-233.874285 63.085714l78.994285 78.994286a360.045714 360.045714 0 0 1 154.697143-34.742857A371.565714 371.565714 0 0 1 873.508571 512a380.342857 380.342857 0 0 1-25.6 136.777143l-89.051428-33.462857 65.097143 209.737143L1024 714.971429z" p-id="46341" fill="#ffffff"></path></svg>